<svg width="20" height="20" viewBox="0 0 20 20" fill="none" xmlns="http://www.w3.org/2000/svg">
<path d="M20 16.1803C20 16.4119 19.8105 16.6014 19.579 16.6014H0.421055C0.189453 16.6013 0 16.4119 0 16.1803V3.81968C0 3.58811 0.189453 3.39862 0.421055 3.39862H19.579C19.8105 3.39862 20 3.58811 20 3.81968V16.1803Z" fill="#FFF7EE"/>
<path d="M19.579 3.39868H8.17859V4.66853H20V3.8197C20 3.58813 19.8105 3.39868 19.579 3.39868Z" fill="#E02424"/>
<path d="M8.17853 8.17181V8.96412C8.17853 9.22678 7.96497 9.44166 7.70392 9.44166H20V8.17185H8.17853V8.17181Z" fill="#E02424"/>
<path d="M20 10.5583H0V11.8282H20V10.5583Z" fill="#E02424"/>
<path opacity="0.1" d="M1.28422 10.5583H0V11.8282H1.28422V10.5583Z" fill="black"/>
<path d="M20 12.9449H0V14.2147H20V12.9449Z" fill="#E02424"/>
<path d="M20 16.1803V15.3315H0V16.1803C0 16.4119 0.189453 16.6014 0.421055 16.6014H19.579C19.8105 16.6013 20 16.4119 20 16.1803Z" fill="#E02424"/>
<path d="M19.9996 5.78531H8.17834V7.05511H19.9996V5.78531Z" fill="#E02424"/>
<path d="M0.421055 3.39868C0.189453 3.39868 0 3.58813 0 3.8197V9.44161H8.15297C8.41402 9.44161 8.62758 9.22673 8.62758 8.96407V3.39868H0.421055Z" fill="#0853A4"/>
<path opacity="0.1" d="M1.74734 3.39868H0.421055C0.189453 3.39868 0 3.58813 0 3.8197V9.44161H1.32633V3.8197C1.32633 3.58813 1.51578 3.39868 1.74734 3.39868Z" fill="black"/>
<path d="M1.86384 5.08151C1.85434 5.08151 1.84466 5.07928 1.83579 5.07443L1.72102 5.0126L1.60622 5.07443C1.59739 5.07924 1.58778 5.08151 1.57821 5.08151C1.56571 5.08151 1.55325 5.0776 1.5427 5.06975C1.52419 5.05596 1.51485 5.03256 1.5188 5.00943L1.54067 4.87838L1.44782 4.78569C1.43141 4.76924 1.42548 4.74471 1.43259 4.72236C1.43966 4.69998 1.45852 4.68369 1.4813 4.68033L1.60958 4.66123L1.66704 4.54205C1.6772 4.52096 1.69813 4.5076 1.72106 4.5076C1.74399 4.5076 1.76497 4.52096 1.77509 4.54205L1.83251 4.66123L1.96083 4.68033C1.98356 4.68373 2.00239 4.69998 2.0095 4.72236C2.01661 4.74471 2.01067 4.76924 1.99419 4.78569L1.90137 4.87838L1.92325 5.00943C1.92719 5.03256 1.91786 5.05596 1.89938 5.06975C1.88887 5.07756 1.87637 5.08151 1.86384 5.08151Z" fill="white"/>
<path d="M1.86384 6.15253C1.85434 6.15253 1.84466 6.15035 1.83579 6.14546L1.72102 6.08359L1.60622 6.14546C1.59739 6.15031 1.58778 6.15253 1.57821 6.15253C1.56571 6.15253 1.55325 6.14863 1.5427 6.14077C1.52419 6.12699 1.51485 6.10359 1.5188 6.08038L1.54067 5.94941L1.44782 5.85667C1.43141 5.84035 1.42548 5.8157 1.43259 5.79339C1.43966 5.77105 1.45852 5.7548 1.4813 5.75132L1.60958 5.73226L1.66704 5.61308C1.6772 5.59203 1.69813 5.5787 1.72106 5.5787C1.74399 5.5787 1.76497 5.59203 1.77509 5.61308L1.83251 5.73226L1.96083 5.75132C1.98356 5.7548 2.00239 5.77105 2.0095 5.79339C2.01661 5.8157 2.01067 5.84035 1.99419 5.85667L1.90137 5.94941L1.92325 6.08038C1.92719 6.10363 1.91786 6.12695 1.89938 6.14077C1.88887 6.14867 1.87637 6.15253 1.86384 6.15253Z" fill="white"/>
<path d="M1.86384 7.22369C1.85434 7.22369 1.84466 7.22139 1.83579 7.21662L1.72102 7.15482L1.60622 7.21662C1.59739 7.22143 1.58778 7.22369 1.57821 7.22369C1.56571 7.22369 1.55325 7.21975 1.5427 7.21193C1.52419 7.19811 1.51485 7.17471 1.5188 7.15162L1.54067 7.02061L1.44782 6.92795C1.43141 6.91146 1.42548 6.88686 1.43259 6.86455C1.43966 6.84221 1.45852 6.82588 1.4813 6.82248L1.60958 6.80342L1.66704 6.68424C1.6772 6.66322 1.69813 6.6499 1.72106 6.6499C1.74399 6.6499 1.76497 6.66322 1.77509 6.68424L1.83251 6.80342L1.96083 6.82248C1.98356 6.82592 2.00239 6.84225 2.0095 6.86455C2.01661 6.88686 2.01067 6.91146 1.99419 6.92795L1.90137 7.02061L1.92325 7.15162C1.92719 7.17471 1.91786 7.19811 1.89938 7.21193C1.88887 7.21975 1.87637 7.22369 1.86384 7.22369Z" fill="white"/>
<path d="M1.86384 8.29478C1.85434 8.29478 1.84466 8.29248 1.83579 8.28771L1.72102 8.22584L1.60622 8.28771C1.59739 8.29252 1.58778 8.29478 1.57821 8.29478C1.56571 8.29478 1.55325 8.29088 1.5427 8.28299C1.52419 8.2692 1.51485 8.24576 1.5188 8.22264L1.54067 8.0917L1.44782 7.99896C1.43141 7.98256 1.42548 7.95795 1.43259 7.9356C1.43966 7.91326 1.45852 7.89693 1.4813 7.89353L1.60958 7.87447L1.66704 7.75529C1.6772 7.73428 1.69813 7.72092 1.72106 7.72092C1.74399 7.72092 1.76497 7.73432 1.77509 7.75529L1.83251 7.87447L1.96083 7.89353C1.98356 7.89697 2.00239 7.9133 2.0095 7.9356C2.01661 7.95795 2.01067 7.98256 1.99419 7.99896L1.90137 8.0917L1.92325 8.22264C1.92719 8.24576 1.91786 8.2692 1.89938 8.28299C1.88887 8.29088 1.87637 8.29478 1.86384 8.29478Z" fill="white"/>
<path d="M1.18541 4.54596C1.17592 4.54596 1.16623 4.54373 1.15736 4.53885L1.04256 4.47705L0.927791 4.53885C0.918924 4.5437 0.909315 4.54596 0.899705 4.54596C0.887205 4.54596 0.874783 4.54202 0.864237 4.53416C0.845682 4.52041 0.836346 4.49694 0.84033 4.47381L0.862166 4.3428L0.769354 4.2501C0.752948 4.23366 0.74701 4.20909 0.75412 4.18674C0.76119 4.16436 0.779979 4.14807 0.80283 4.14467L0.931111 4.12561L0.988533 4.00639C0.99865 3.98534 1.01959 3.97202 1.04256 3.97202C1.06553 3.97202 1.08646 3.98537 1.09654 4.00639L1.154 4.12561L1.28232 4.14467C1.30506 4.14811 1.32392 4.16436 1.33099 4.18674C1.3381 4.20909 1.3322 4.23366 1.31576 4.2501L1.22291 4.3428L1.24482 4.47381C1.24873 4.49694 1.23943 4.52037 1.22088 4.53416C1.21037 4.54198 1.19795 4.54596 1.18541 4.54596Z" fill="white"/>
<path d="M1.18541 5.61703C1.17592 5.61703 1.16623 5.61468 1.15736 5.60996L1.04256 5.54812L0.927791 5.60996C0.918924 5.61472 0.909315 5.61703 0.899705 5.61703C0.887205 5.61703 0.874783 5.61304 0.864237 5.60527C0.845682 5.5914 0.836346 5.56804 0.84033 5.54492L0.862166 5.4139L0.769354 5.32117C0.752948 5.30476 0.74701 5.28019 0.75412 5.25781C0.76119 5.23547 0.779979 5.21921 0.80283 5.21582L0.931111 5.19671L0.988533 5.07754C0.99865 5.05648 1.01959 5.04312 1.04256 5.04312C1.06553 5.04312 1.08646 5.05652 1.09654 5.07754L1.154 5.19671L1.28232 5.21582C1.30506 5.21921 1.32392 5.2355 1.33099 5.25781C1.3381 5.28019 1.3322 5.30476 1.31576 5.32117L1.22291 5.4139L1.24482 5.54492C1.24873 5.56804 1.23943 5.5914 1.22088 5.60527C1.21037 5.61304 1.19795 5.61703 1.18541 5.61703Z" fill="white"/>
<path d="M1.18541 6.68816C1.17592 6.68816 1.16623 6.68585 1.15736 6.68112L1.04256 6.61925L0.927791 6.68112C0.918924 6.68585 0.909315 6.68816 0.899705 6.68816C0.887205 6.68816 0.874783 6.68417 0.864237 6.6764C0.845682 6.66261 0.836346 6.63917 0.84033 6.61601L0.862166 6.48503L0.769354 6.3923C0.752948 6.37589 0.74701 6.35132 0.75412 6.32898C0.76119 6.30659 0.779979 6.2903 0.80283 6.28695L0.931111 6.26788L0.988533 6.14862C0.99865 6.12761 1.01959 6.11429 1.04256 6.11429C1.06553 6.11429 1.08646 6.12761 1.09654 6.14862L1.154 6.26788L1.28232 6.28695C1.30506 6.29038 1.32392 6.30663 1.33099 6.32898C1.3381 6.35132 1.3322 6.37589 1.31576 6.3923L1.22291 6.48503L1.24482 6.61601C1.24873 6.63917 1.23943 6.66261 1.22088 6.6764C1.21037 6.68417 1.19795 6.68816 1.18541 6.68816Z" fill="white"/>
<path d="M1.18541 7.75924C1.17592 7.75924 1.16623 7.75701 1.15736 7.75217L1.04256 7.69033L0.927791 7.75217C0.918924 7.75697 0.909315 7.75924 0.899705 7.75924C0.887205 7.75924 0.874783 7.75533 0.864237 7.74748C0.845682 7.73369 0.836346 7.71022 0.84033 7.68713L0.862166 7.55611L0.769354 7.46342C0.752948 7.44705 0.74701 7.42244 0.75412 7.40002C0.76119 7.37768 0.779979 7.36143 0.80283 7.35803L0.931111 7.33901L0.988533 7.21979C0.99865 7.19873 1.01959 7.18533 1.04256 7.18533C1.06553 7.18533 1.08646 7.19873 1.09654 7.21979L1.154 7.33901L1.28232 7.35803C1.30506 7.36147 1.32392 7.37772 1.33099 7.40002C1.3381 7.4224 1.3322 7.44701 1.31576 7.46342L1.22291 7.55611L1.24482 7.68713C1.24873 7.71022 1.23943 7.73365 1.22088 7.74748C1.21037 7.75533 1.19795 7.75924 1.18541 7.75924Z" fill="white"/>
<path d="M1.18541 8.8303C1.17592 8.8303 1.16623 8.82799 1.15736 8.82323L1.04256 8.76143L0.927791 8.82323C0.918924 8.82799 0.909315 8.8303 0.899705 8.8303C0.887205 8.8303 0.874783 8.82639 0.864237 8.81854C0.845682 8.80479 0.836346 8.78131 0.84033 8.75819L0.862166 8.62721L0.769354 8.53456C0.752948 8.51811 0.74701 8.4935 0.75412 8.47116C0.76119 8.44877 0.779979 8.43249 0.80283 8.42909L0.931111 8.41002L0.988533 8.29088C0.99865 8.26983 1.01959 8.25647 1.04256 8.25647C1.06553 8.25647 1.08646 8.26983 1.09654 8.29088L1.154 8.41002L1.28232 8.42909C1.30506 8.43249 1.32392 8.44877 1.33099 8.47116C1.3381 8.4935 1.3322 8.51811 1.31576 8.53456L1.22291 8.62721L1.24482 8.75819C1.24873 8.78131 1.23943 8.80479 1.22088 8.81854C1.21037 8.82643 1.19795 8.8303 1.18541 8.8303Z" fill="white"/>
<path d="M3.18093 5.08151C3.17136 5.08151 3.16171 5.07928 3.15284 5.07443L3.03808 5.0126L2.92331 5.07443C2.91448 5.07924 2.90484 5.08151 2.89527 5.08151C2.88273 5.08151 2.87034 5.0776 2.85976 5.06975C2.84124 5.05596 2.83187 5.03256 2.83585 5.00943L2.85773 4.87838L2.76488 4.78569C2.74843 4.76924 2.74249 4.74471 2.7496 4.72236C2.75671 4.69998 2.77558 4.68369 2.79831 4.68033L2.92667 4.66123L2.98405 4.54205C2.99417 4.52096 3.01515 4.5076 3.03808 4.5076C3.06101 4.5076 3.08198 4.52096 3.0921 4.54205L3.14952 4.66123L3.27784 4.68033C3.30058 4.68373 3.31944 4.69998 3.32651 4.72236C3.33366 4.74471 3.32769 4.76924 3.31124 4.78569L3.21839 4.87838L3.2403 5.00943C3.24421 5.03256 3.23487 5.05596 3.21636 5.06975C3.20585 5.07756 3.19343 5.08151 3.18093 5.08151Z" fill="white"/>
<path d="M3.18093 6.15253C3.17136 6.15253 3.16171 6.15035 3.15284 6.14546L3.03808 6.08359L2.92331 6.14546C2.91448 6.15031 2.90484 6.15253 2.89527 6.15253C2.88273 6.15253 2.87034 6.14863 2.85976 6.14077C2.84124 6.12699 2.83187 6.10359 2.83585 6.08038L2.85773 5.94941L2.76488 5.85667C2.74843 5.84035 2.74249 5.8157 2.7496 5.79339C2.75671 5.77105 2.77558 5.7548 2.79831 5.75132L2.92667 5.73226L2.98405 5.61308C2.99417 5.59203 3.01515 5.5787 3.03808 5.5787C3.06101 5.5787 3.08198 5.59203 3.0921 5.61308L3.14952 5.73226L3.27784 5.75132C3.30058 5.7548 3.31944 5.77105 3.32651 5.79339C3.33366 5.8157 3.32769 5.84035 3.31124 5.85667L3.21839 5.94941L3.2403 6.08038C3.24421 6.10363 3.23487 6.12695 3.21636 6.14077C3.20585 6.14867 3.19343 6.15253 3.18093 6.15253Z" fill="white"/>
<path d="M3.18093 7.22369C3.17136 7.22369 3.16171 7.22139 3.15284 7.21662L3.03808 7.15482L2.92331 7.21662C2.91448 7.22143 2.90484 7.22369 2.89527 7.22369C2.88273 7.22369 2.87034 7.21975 2.85976 7.21193C2.84124 7.19811 2.83187 7.17471 2.83585 7.15162L2.85773 7.02061L2.76488 6.92795C2.74843 6.91146 2.74249 6.88686 2.7496 6.86455C2.75671 6.84221 2.77558 6.82588 2.79831 6.82248L2.92667 6.80342L2.98405 6.68424C2.99417 6.66322 3.01515 6.6499 3.03808 6.6499C3.06101 6.6499 3.08198 6.66322 3.0921 6.68424L3.14952 6.80342L3.27784 6.82248C3.30058 6.82592 3.31944 6.84225 3.32651 6.86455C3.33366 6.88686 3.32769 6.91146 3.31124 6.92795L3.21839 7.02061L3.2403 7.15162C3.24421 7.17471 3.23487 7.19811 3.21636 7.21193C3.20585 7.21975 3.19343 7.22369 3.18093 7.22369Z" fill="white"/>
<path d="M3.18093 8.29478C3.17136 8.29478 3.16171 8.29248 3.15284 8.28771L3.03808 8.22584L2.92331 8.28771C2.91448 8.29252 2.90484 8.29478 2.89527 8.29478C2.88273 8.29478 2.87034 8.29088 2.85976 8.28299C2.84124 8.2692 2.83187 8.24576 2.83585 8.22264L2.85773 8.0917L2.76488 7.99896C2.74843 7.98256 2.74249 7.95795 2.7496 7.9356C2.75671 7.91326 2.77558 7.89693 2.79831 7.89353L2.92667 7.87447L2.98405 7.75529C2.99417 7.73428 3.01515 7.72092 3.03808 7.72092C3.06101 7.72092 3.08198 7.73432 3.0921 7.75529L3.14952 7.87447L3.27784 7.89353C3.30058 7.89697 3.31944 7.9133 3.32651 7.9356C3.33366 7.95795 3.32769 7.98256 3.31124 7.99896L3.21839 8.0917L3.2403 8.22264C3.24421 8.24576 3.23487 8.2692 3.21636 8.28299C3.20585 8.29088 3.19343 8.29478 3.18093 8.29478Z" fill="white"/>
<path d="M2.50241 4.54596C2.49284 4.54596 2.48323 4.54373 2.47436 4.53885L2.35956 4.47705L2.24479 4.53885C2.23592 4.5437 2.22635 4.54596 2.21674 4.54596C2.2042 4.54596 2.19182 4.54202 2.18127 4.53416C2.16276 4.52041 2.15338 4.49694 2.15733 4.47381L2.1792 4.3428L2.08639 4.2501C2.06995 4.23366 2.06405 4.20909 2.07112 4.18674C2.07819 4.16436 2.09706 4.14807 2.11983 4.14467L2.24815 4.12561L2.30553 4.00639C2.31569 3.98534 2.33663 3.97202 2.35959 3.97202C2.38252 3.97202 2.4035 3.98537 2.41362 4.00639L2.47104 4.12561L2.59936 4.14467C2.62213 4.14811 2.64096 4.16436 2.64803 4.18674C2.65514 4.20909 2.6492 4.23366 2.63272 4.2501L2.53991 4.3428L2.56186 4.47381C2.56577 4.49694 2.55643 4.52037 2.53788 4.53416C2.52733 4.54198 2.51487 4.54596 2.50241 4.54596Z" fill="white"/>
<path d="M2.50241 5.61703C2.49284 5.61703 2.48323 5.61468 2.47436 5.60996L2.35956 5.54812L2.24479 5.60996C2.23592 5.61472 2.22635 5.61703 2.21674 5.61703C2.2042 5.61703 2.19182 5.61304 2.18127 5.60527C2.16276 5.5914 2.15338 5.56804 2.15733 5.54492L2.1792 5.4139L2.08639 5.32117C2.06995 5.30476 2.06405 5.28019 2.07112 5.25781C2.07819 5.23547 2.09706 5.21921 2.11983 5.21582L2.24815 5.19671L2.30553 5.07754C2.31569 5.05648 2.33663 5.04312 2.35959 5.04312C2.38252 5.04312 2.4035 5.05652 2.41362 5.07754L2.47104 5.19671L2.59936 5.21582C2.62213 5.21921 2.64096 5.2355 2.64803 5.25781C2.65514 5.28019 2.6492 5.30476 2.63272 5.32117L2.53991 5.4139L2.56186 5.54492C2.56577 5.56804 2.55643 5.5914 2.53788 5.60527C2.52733 5.61304 2.51487 5.61703 2.50241 5.61703Z" fill="white"/>
<path d="M2.50241 6.68816C2.49284 6.68816 2.48323 6.68585 2.47436 6.68112L2.35956 6.61925L2.24479 6.68112C2.23592 6.68585 2.22635 6.68816 2.21674 6.68816C2.2042 6.68816 2.19182 6.68417 2.18127 6.6764C2.16276 6.66261 2.15338 6.63917 2.15733 6.61601L2.1792 6.48503L2.08639 6.3923C2.06995 6.37589 2.06405 6.35132 2.07112 6.32898C2.07819 6.30659 2.09706 6.2903 2.11983 6.28695L2.24815 6.26788L2.30553 6.14862C2.31569 6.12761 2.33663 6.11429 2.35959 6.11429C2.38252 6.11429 2.4035 6.12761 2.41362 6.14862L2.47104 6.26788L2.59936 6.28695C2.62213 6.29038 2.64096 6.30663 2.64803 6.32898C2.65514 6.35132 2.6492 6.37589 2.63272 6.3923L2.53991 6.48503L2.56186 6.61601C2.56577 6.63917 2.55643 6.66261 2.53788 6.6764C2.52733 6.68417 2.51487 6.68816 2.50241 6.68816Z" fill="white"/>
<path d="M2.50241 7.75924C2.49284 7.75924 2.48323 7.75701 2.47436 7.75217L2.35956 7.69033L2.24479 7.75217C2.23592 7.75697 2.22635 7.75924 2.21674 7.75924C2.2042 7.75924 2.19182 7.75533 2.18127 7.74748C2.16276 7.73369 2.15338 7.71022 2.15733 7.68713L2.1792 7.55611L2.08639 7.46342C2.06995 7.44705 2.06405 7.42244 2.07112 7.40002C2.07819 7.37768 2.09706 7.36143 2.11983 7.35803L2.24815 7.33901L2.30553 7.21979C2.31569 7.19873 2.33663 7.18533 2.35959 7.18533C2.38252 7.18533 2.4035 7.19873 2.41362 7.21979L2.47104 7.33901L2.59936 7.35803C2.62213 7.36147 2.64096 7.37772 2.64803 7.40002C2.65514 7.4224 2.6492 7.44701 2.63272 7.46342L2.53991 7.55611L2.56186 7.68713C2.56577 7.71022 2.55643 7.73365 2.53788 7.74748C2.52733 7.75533 2.51487 7.75924 2.50241 7.75924Z" fill="white"/>
<path d="M2.50241 8.8303C2.49284 8.8303 2.48323 8.82799 2.47436 8.82323L2.35956 8.76143L2.24479 8.82323C2.23592 8.82799 2.22635 8.8303 2.21674 8.8303C2.2042 8.8303 2.19182 8.82639 2.18127 8.81854C2.16276 8.80479 2.15338 8.78131 2.15733 8.75819L2.1792 8.62721L2.08639 8.53456C2.06995 8.51811 2.06405 8.4935 2.07112 8.47116C2.07819 8.44877 2.09706 8.43249 2.11983 8.42909L2.24815 8.41002L2.30553 8.29088C2.31569 8.26983 2.33663 8.25647 2.35959 8.25647C2.38252 8.25647 2.4035 8.26983 2.41362 8.29088L2.47104 8.41002L2.59936 8.42909C2.62213 8.43249 2.64096 8.44877 2.64803 8.47116C2.65514 8.4935 2.6492 8.51811 2.63272 8.53456L2.53991 8.62721L2.56186 8.75819C2.56577 8.78131 2.55643 8.80479 2.53788 8.81854C2.52733 8.82643 2.51487 8.8303 2.50241 8.8303Z" fill="white"/>
<path d="M4.49787 5.08151C4.48838 5.08151 4.47869 5.07928 4.46983 5.07443L4.35502 5.0126L4.24026 5.07443C4.23139 5.07924 4.22182 5.08151 4.21221 5.08151C4.19971 5.08151 4.18729 5.0776 4.17674 5.06975C4.15823 5.05596 4.14889 5.03256 4.15284 5.00943L4.17467 4.87838L4.08186 4.78569C4.06542 4.76924 4.05952 4.74471 4.06663 4.72236C4.07374 4.69998 4.09249 4.68369 4.11534 4.68033L4.24366 4.66123L4.30108 4.54205C4.31116 4.52096 4.33213 4.5076 4.35506 4.5076C4.37803 4.5076 4.39897 4.52096 4.40909 4.54205L4.46651 4.66123L4.59487 4.68033C4.6176 4.68373 4.63647 4.69998 4.64354 4.72236C4.65065 4.74471 4.64471 4.76924 4.62826 4.78569L4.53541 4.87838L4.55737 5.00943C4.56123 5.03256 4.55194 5.05596 4.53338 5.06975C4.52284 5.07756 4.51037 5.08151 4.49787 5.08151Z" fill="white"/>
<path d="M4.49787 6.15253C4.48838 6.15253 4.47869 6.15035 4.46983 6.14546L4.35502 6.08359L4.24026 6.14546C4.23139 6.15031 4.22182 6.15253 4.21221 6.15253C4.19971 6.15253 4.18729 6.14863 4.17674 6.14077C4.15823 6.12699 4.14889 6.10359 4.15284 6.08038L4.17467 5.94941L4.08186 5.85667C4.06542 5.84035 4.05952 5.8157 4.06663 5.79339C4.07374 5.77105 4.09249 5.7548 4.11534 5.75132L4.24366 5.73226L4.30108 5.61308C4.31116 5.59203 4.33213 5.5787 4.35506 5.5787C4.37803 5.5787 4.39897 5.59203 4.40909 5.61308L4.46651 5.73226L4.59487 5.75132C4.6176 5.7548 4.63647 5.77105 4.64354 5.79339C4.65065 5.8157 4.64471 5.84035 4.62826 5.85667L4.53541 5.94941L4.55737 6.08038C4.56123 6.10363 4.55194 6.12695 4.53338 6.14077C4.52284 6.14867 4.51037 6.15253 4.49787 6.15253Z" fill="white"/>
<path d="M4.49787 7.22369C4.48838 7.22369 4.47869 7.22139 4.46983 7.21662L4.35502 7.15482L4.24026 7.21662C4.23139 7.22143 4.22182 7.22369 4.21221 7.22369C4.19971 7.22369 4.18729 7.21975 4.17674 7.21193C4.15823 7.19811 4.14889 7.17471 4.15284 7.15162L4.17467 7.02061L4.08186 6.92795C4.06542 6.91146 4.05952 6.88686 4.06663 6.86455C4.07374 6.84221 4.09249 6.82588 4.11534 6.82248L4.24366 6.80342L4.30108 6.68424C4.31116 6.66322 4.33213 6.6499 4.35506 6.6499C4.37803 6.6499 4.39897 6.66322 4.40909 6.68424L4.46651 6.80342L4.59487 6.82248C4.6176 6.82592 4.63647 6.84225 4.64354 6.86455C4.65065 6.88686 4.64471 6.91146 4.62826 6.92795L4.53541 7.02061L4.55737 7.15162C4.56123 7.17471 4.55194 7.19811 4.53338 7.21193C4.52284 7.21975 4.51037 7.22369 4.49787 7.22369Z" fill="white"/>
<path d="M4.49787 8.29478C4.48838 8.29478 4.47869 8.29248 4.46983 8.28771L4.35502 8.22584L4.24026 8.28771C4.23139 8.29252 4.22182 8.29478 4.21221 8.29478C4.19971 8.29478 4.18729 8.29088 4.17674 8.28299C4.15823 8.2692 4.14889 8.24576 4.15284 8.22264L4.17467 8.0917L4.08186 7.99896C4.06542 7.98256 4.05952 7.95795 4.06663 7.9356C4.07374 7.91326 4.09249 7.89693 4.11534 7.89353L4.24366 7.87447L4.30108 7.75529C4.31116 7.73428 4.33213 7.72092 4.35506 7.72092C4.37803 7.72092 4.39897 7.73432 4.40909 7.75529L4.46651 7.87447L4.59487 7.89353C4.6176 7.89697 4.63647 7.9133 4.64354 7.9356C4.65065 7.95795 4.64471 7.98256 4.62826 7.99896L4.53541 8.0917L4.55737 8.22264C4.56123 8.24576 4.55194 8.2692 4.53338 8.28299C4.52284 8.29088 4.51037 8.29478 4.49787 8.29478Z" fill="white"/>
<path d="M3.81944 4.54596C3.80987 4.54596 3.80026 4.54373 3.79139 4.53885L3.67663 4.47705L3.56182 4.53885C3.55299 4.5437 3.54339 4.54596 3.53378 4.54596C3.52128 4.54596 3.50882 4.54202 3.49831 4.53416C3.47979 4.52041 3.47042 4.49694 3.47436 4.47381L3.49624 4.3428L3.40343 4.2501C3.38698 4.23366 3.38104 4.20909 3.38815 4.18674C3.39522 4.16436 3.41409 4.14807 3.43686 4.14467L3.56522 4.12561L3.62256 4.00639C3.63276 3.98534 3.65366 3.97202 3.67663 3.97202C3.69952 3.97202 3.72053 3.98537 3.73061 4.00639L3.78803 4.12561L3.91639 4.14467C3.93916 4.14811 3.95795 4.16436 3.96498 4.18674C3.97209 4.20909 3.96616 4.23366 3.94971 4.2501L3.8569 4.3428L3.87881 4.47381C3.88272 4.49694 3.87338 4.52037 3.85487 4.53416C3.84444 4.54198 3.83194 4.54596 3.81944 4.54596Z" fill="white"/>
<path d="M3.81944 5.61703C3.80987 5.61703 3.80026 5.61468 3.79139 5.60996L3.67663 5.54812L3.56182 5.60996C3.55299 5.61472 3.54339 5.61703 3.53378 5.61703C3.52128 5.61703 3.50882 5.61304 3.49831 5.60527C3.47979 5.5914 3.47042 5.56804 3.47436 5.54492L3.49624 5.4139L3.40343 5.32117C3.38698 5.30476 3.38104 5.28019 3.38815 5.25781C3.39522 5.23547 3.41409 5.21921 3.43686 5.21582L3.56522 5.19671L3.62256 5.07754C3.63276 5.05648 3.65366 5.04312 3.67663 5.04312C3.69952 5.04312 3.72053 5.05652 3.73061 5.07754L3.78803 5.19671L3.91639 5.21582C3.93916 5.21921 3.95795 5.2355 3.96498 5.25781C3.97209 5.28019 3.96616 5.30476 3.94971 5.32117L3.8569 5.4139L3.87881 5.54492C3.88272 5.56804 3.87338 5.5914 3.85487 5.60527C3.84444 5.61304 3.83194 5.61703 3.81944 5.61703Z" fill="white"/>
<path d="M3.81944 6.68816C3.80987 6.68816 3.80026 6.68585 3.79139 6.68112L3.67663 6.61925L3.56182 6.68112C3.55299 6.68585 3.54339 6.68816 3.53378 6.68816C3.52128 6.68816 3.50882 6.68417 3.49831 6.6764C3.47979 6.66261 3.47042 6.63917 3.47436 6.61601L3.49624 6.48503L3.40343 6.3923C3.38698 6.37589 3.38104 6.35132 3.38815 6.32898C3.39522 6.30659 3.41409 6.2903 3.43686 6.28695L3.56522 6.26788L3.62256 6.14862C3.63276 6.12761 3.65366 6.11429 3.67663 6.11429C3.69952 6.11429 3.72053 6.12761 3.73061 6.14862L3.78803 6.26788L3.91639 6.28695C3.93916 6.29038 3.95795 6.30663 3.96498 6.32898C3.97209 6.35132 3.96616 6.37589 3.94971 6.3923L3.8569 6.48503L3.87881 6.61601C3.88272 6.63917 3.87338 6.66261 3.85487 6.6764C3.84444 6.68417 3.83194 6.68816 3.81944 6.68816Z" fill="white"/>
<path d="M3.81944 7.75924C3.80987 7.75924 3.80026 7.75701 3.79139 7.75217L3.67663 7.69033L3.56182 7.75217C3.55299 7.75697 3.54339 7.75924 3.53378 7.75924C3.52128 7.75924 3.50882 7.75533 3.49831 7.74748C3.47979 7.73369 3.47042 7.71022 3.47436 7.68713L3.49624 7.55611L3.40343 7.46342C3.38698 7.44705 3.38104 7.42244 3.38815 7.40002C3.39522 7.37768 3.41409 7.36143 3.43686 7.35803L3.56522 7.33901L3.62256 7.21979C3.63276 7.19873 3.65366 7.18533 3.67663 7.18533C3.69952 7.18533 3.72053 7.19873 3.73061 7.21979L3.78803 7.33901L3.91639 7.35803C3.93916 7.36147 3.95795 7.37772 3.96498 7.40002C3.97209 7.4224 3.96616 7.44701 3.94971 7.46342L3.8569 7.55611L3.87881 7.68713C3.88272 7.71022 3.87338 7.73365 3.85487 7.74748C3.84444 7.75533 3.83194 7.75924 3.81944 7.75924Z" fill="white"/>
<path d="M3.81944 8.8303C3.80987 8.8303 3.80026 8.82799 3.79139 8.82323L3.67663 8.76143L3.56182 8.82323C3.55299 8.82799 3.54339 8.8303 3.53378 8.8303C3.52128 8.8303 3.50882 8.82639 3.49831 8.81854C3.47979 8.80479 3.47042 8.78131 3.47436 8.75819L3.49624 8.62721L3.40343 8.53456C3.38698 8.51811 3.38104 8.4935 3.38815 8.47116C3.39522 8.44877 3.41409 8.43249 3.43686 8.42909L3.56522 8.41002L3.62256 8.29088C3.63276 8.26983 3.65366 8.25647 3.67663 8.25647C3.69952 8.25647 3.72053 8.26983 3.73061 8.29088L3.78803 8.41002L3.91639 8.42909C3.93916 8.43249 3.95795 8.44877 3.96498 8.47116C3.97209 8.4935 3.96616 8.51811 3.94971 8.53456L3.8569 8.62721L3.87881 8.75819C3.88272 8.78131 3.87338 8.80479 3.85487 8.81854C3.84444 8.82643 3.83194 8.8303 3.81944 8.8303Z" fill="white"/>
<path d="M5.81486 5.08151C5.80533 5.08151 5.79564 5.07928 5.78677 5.07443L5.67201 5.0126L5.55724 5.07443C5.54837 5.07924 5.53876 5.08151 5.52916 5.08151C5.51666 5.08151 5.50423 5.0776 5.49369 5.06975C5.47517 5.05596 5.4658 5.03256 5.46978 5.00943L5.49166 4.87838L5.3988 4.78569C5.38236 4.76924 5.37638 4.74471 5.38353 4.72236C5.3906 4.69998 5.40943 4.68369 5.4322 4.68033L5.56052 4.66123L5.61794 4.54205C5.6281 4.52096 5.64904 4.5076 5.67197 4.5076C5.6949 4.5076 5.71587 4.52096 5.72599 4.54205L5.78345 4.66123L5.91173 4.68033C5.93447 4.68373 5.9533 4.69998 5.96033 4.72236C5.96748 4.74471 5.96154 4.76924 5.94506 4.78569L5.8522 4.87838L5.87416 5.00943C5.87802 5.03256 5.86873 5.05596 5.85017 5.06975C5.83982 5.07756 5.82736 5.08151 5.81486 5.08151Z" fill="white"/>
<path d="M5.81486 6.15253C5.80533 6.15253 5.79564 6.15035 5.78677 6.14546L5.67201 6.08359L5.55724 6.14546C5.54837 6.15031 5.53876 6.15253 5.52916 6.15253C5.51666 6.15253 5.50423 6.14863 5.49369 6.14077C5.47517 6.12699 5.4658 6.10359 5.46978 6.08038L5.49166 5.94941L5.3988 5.85667C5.38236 5.84035 5.37638 5.8157 5.38353 5.79339C5.3906 5.77105 5.40943 5.7548 5.4322 5.75132L5.56052 5.73226L5.61794 5.61308C5.6281 5.59203 5.64904 5.5787 5.67197 5.5787C5.6949 5.5787 5.71587 5.59203 5.72599 5.61308L5.78345 5.73226L5.91173 5.75132C5.93447 5.7548 5.9533 5.77105 5.96033 5.79339C5.96748 5.8157 5.96154 5.84035 5.94506 5.85667L5.8522 5.94941L5.87416 6.08038C5.87802 6.10363 5.86873 6.12695 5.85017 6.14077C5.83982 6.14867 5.82736 6.15253 5.81486 6.15253Z" fill="white"/>
<path d="M5.81486 7.22369C5.80533 7.22369 5.79564 7.22139 5.78677 7.21662L5.67201 7.15482L5.55724 7.21662C5.54837 7.22143 5.53876 7.22369 5.52916 7.22369C5.51666 7.22369 5.50423 7.21975 5.49369 7.21193C5.47517 7.19811 5.4658 7.17471 5.46978 7.15162L5.49166 7.02061L5.3988 6.92795C5.38236 6.91146 5.37638 6.88686 5.38353 6.86455C5.3906 6.84221 5.40943 6.82588 5.4322 6.82248L5.56052 6.80342L5.61794 6.68424C5.6281 6.66322 5.64904 6.6499 5.67197 6.6499C5.6949 6.6499 5.71587 6.66322 5.72599 6.68424L5.78345 6.80342L5.91173 6.82248C5.93447 6.82592 5.9533 6.84225 5.96033 6.86455C5.96748 6.88686 5.96154 6.91146 5.94506 6.92795L5.8522 7.02061L5.87416 7.15162C5.87802 7.17471 5.86873 7.19811 5.85017 7.21193C5.83982 7.21975 5.82736 7.22369 5.81486 7.22369Z" fill="white"/>
<path d="M5.81486 8.29478C5.80533 8.29478 5.79564 8.29248 5.78677 8.28771L5.67201 8.22584L5.55724 8.28771C5.54837 8.29252 5.53876 8.29478 5.52916 8.29478C5.51666 8.29478 5.50423 8.29088 5.49369 8.28299C5.47517 8.2692 5.4658 8.24576 5.46978 8.22264L5.49166 8.0917L5.3988 7.99896C5.38236 7.98256 5.37638 7.95795 5.38353 7.9356C5.3906 7.91326 5.40943 7.89693 5.4322 7.89353L5.56052 7.87447L5.61794 7.75529C5.6281 7.73428 5.64904 7.72092 5.67197 7.72092C5.6949 7.72092 5.71587 7.73432 5.72599 7.75529L5.78345 7.87447L5.91173 7.89353C5.93447 7.89697 5.9533 7.9133 5.96033 7.9356C5.96748 7.95795 5.96154 7.98256 5.94506 7.99896L5.8522 8.0917L5.87416 8.22264C5.87802 8.24576 5.86873 8.2692 5.85017 8.28299C5.83982 8.29088 5.82736 8.29478 5.81486 8.29478Z" fill="white"/>
<path d="M5.1364 4.54596C5.1269 4.54596 5.11722 4.54373 5.10831 4.53885L4.99354 4.47705L4.87878 4.53885C4.86995 4.5437 4.86026 4.54596 4.85077 4.54596C4.83823 4.54596 4.82581 4.54202 4.81522 4.53416C4.79671 4.52041 4.78737 4.49694 4.79132 4.47381L4.81319 4.3428L4.72038 4.2501C4.70394 4.23366 4.698 4.20909 4.70511 4.18674C4.71222 4.16436 4.73108 4.14807 4.75382 4.14467L4.88218 4.12561L4.93956 4.00639C4.94972 3.98534 4.97069 3.97202 4.99358 3.97202C5.01655 3.97202 5.03749 3.98537 5.04761 4.00639L5.10503 4.12561L5.23335 4.14467C5.25608 4.14811 5.27499 4.16436 5.28202 4.18674C5.28917 4.20909 5.28323 4.23366 5.26675 4.2501L5.1739 4.3428L5.19581 4.47381C5.19972 4.49694 5.19038 4.52037 5.17187 4.53416C5.1614 4.54198 5.14894 4.54596 5.1364 4.54596Z" fill="white"/>
<path d="M5.1364 5.61703C5.1269 5.61703 5.11722 5.61468 5.10831 5.60996L4.99354 5.54812L4.87878 5.60996C4.86995 5.61472 4.86026 5.61703 4.85077 5.61703C4.83823 5.61703 4.82581 5.61304 4.81522 5.60527C4.79671 5.5914 4.78737 5.56804 4.79132 5.54492L4.81319 5.4139L4.72038 5.32117C4.70394 5.30476 4.698 5.28019 4.70511 5.25781C4.71222 5.23547 4.73108 5.21921 4.75382 5.21582L4.88218 5.19671L4.93956 5.07754C4.94972 5.05648 4.97069 5.04312 4.99358 5.04312C5.01655 5.04312 5.03749 5.05652 5.04761 5.07754L5.10503 5.19671L5.23335 5.21582C5.25608 5.21921 5.27499 5.2355 5.28202 5.25781C5.28917 5.28019 5.28323 5.30476 5.26675 5.32117L5.1739 5.4139L5.19581 5.54492C5.19972 5.56804 5.19038 5.5914 5.17187 5.60527C5.1614 5.61304 5.14894 5.61703 5.1364 5.61703Z" fill="white"/>
<path d="M5.1364 6.68816C5.1269 6.68816 5.11722 6.68585 5.10831 6.68112L4.99354 6.61925L4.87878 6.68112C4.86995 6.68585 4.86026 6.68816 4.85077 6.68816C4.83823 6.68816 4.82581 6.68417 4.81522 6.6764C4.79671 6.66261 4.78737 6.63917 4.79132 6.61601L4.81319 6.48503L4.72038 6.3923C4.70394 6.37589 4.698 6.35132 4.70511 6.32898C4.71222 6.30659 4.73108 6.2903 4.75382 6.28695L4.88218 6.26788L4.93956 6.14862C4.94972 6.12761 4.97069 6.11429 4.99358 6.11429C5.01655 6.11429 5.03749 6.12761 5.04761 6.14862L5.10503 6.26788L5.23335 6.28695C5.25608 6.29038 5.27499 6.30663 5.28202 6.32898C5.28917 6.35132 5.28323 6.37589 5.26675 6.3923L5.1739 6.48503L5.19581 6.61601C5.19972 6.63917 5.19038 6.66261 5.17187 6.6764C5.1614 6.68417 5.14894 6.68816 5.1364 6.68816Z" fill="white"/>
<path d="M5.1364 7.75924C5.1269 7.75924 5.11722 7.75701 5.10831 7.75217L4.99354 7.69033L4.87878 7.75217C4.86995 7.75697 4.86026 7.75924 4.85077 7.75924C4.83823 7.75924 4.82581 7.75533 4.81522 7.74748C4.79671 7.73369 4.78737 7.71022 4.79132 7.68713L4.81319 7.55611L4.72038 7.46342C4.70394 7.44705 4.698 7.42244 4.70511 7.40002C4.71222 7.37768 4.73108 7.36143 4.75382 7.35803L4.88218 7.33901L4.93956 7.21979C4.94972 7.19873 4.97069 7.18533 4.99358 7.18533C5.01655 7.18533 5.03749 7.19873 5.04761 7.21979L5.10503 7.33901L5.23335 7.35803C5.25608 7.36147 5.27499 7.37772 5.28202 7.40002C5.28917 7.4224 5.28323 7.44701 5.26675 7.46342L5.1739 7.55611L5.19581 7.68713C5.19972 7.71022 5.19038 7.73365 5.17187 7.74748C5.1614 7.75533 5.14894 7.75924 5.1364 7.75924Z" fill="white"/>
<path d="M5.1364 8.8303C5.1269 8.8303 5.11722 8.82799 5.10831 8.82323L4.99354 8.76143L4.87878 8.82323C4.86995 8.82799 4.86026 8.8303 4.85077 8.8303C4.83823 8.8303 4.82581 8.82639 4.81522 8.81854C4.79671 8.80479 4.78737 8.78131 4.79132 8.75819L4.81319 8.62721L4.72038 8.53456C4.70394 8.51811 4.698 8.4935 4.70511 8.47116C4.71222 8.44877 4.73108 8.43249 4.75382 8.42909L4.88218 8.41002L4.93956 8.29088C4.94972 8.26983 4.97069 8.25647 4.99358 8.25647C5.01655 8.25647 5.03749 8.26983 5.04761 8.29088L5.10503 8.41002L5.23335 8.42909C5.25608 8.43249 5.27499 8.44877 5.28202 8.47116C5.28917 8.4935 5.28323 8.51811 5.26675 8.53456L5.1739 8.62721L5.19581 8.75819C5.19972 8.78131 5.19038 8.80479 5.17187 8.81854C5.1614 8.82643 5.14894 8.8303 5.1364 8.8303Z" fill="white"/>
<path d="M7.13187 5.08151C7.1223 5.08151 7.11269 5.07928 7.10378 5.07443L6.98898 5.0126L6.87422 5.07443C6.86535 5.07924 6.85574 5.08151 6.84621 5.08151C6.83367 5.08151 6.82125 5.0776 6.81078 5.06975C6.79219 5.05596 6.78277 5.03256 6.78683 5.00943L6.80867 4.87838L6.71586 4.78569C6.69945 4.76924 6.69347 4.74471 6.70058 4.72236C6.70769 4.69998 6.72656 4.68369 6.7493 4.68033L6.87761 4.66123L6.93504 4.54205C6.94515 4.52096 6.96609 4.5076 6.98902 4.5076C7.01203 4.5076 7.033 4.52096 7.04308 4.54205L7.1005 4.66123L7.22886 4.68033C7.25156 4.68373 7.27042 4.69998 7.27742 4.72236C7.28453 4.74471 7.27863 4.76924 7.26214 4.78569L7.16933 4.87838L7.19125 5.00943C7.19515 5.03256 7.18585 5.05596 7.16734 5.06975C7.15687 5.07756 7.14441 5.08151 7.13187 5.08151Z" fill="white"/>
<path d="M7.13187 6.15253C7.1223 6.15253 7.11269 6.15035 7.10378 6.14546L6.98898 6.08359L6.87422 6.14546C6.86535 6.15031 6.85574 6.15253 6.84621 6.15253C6.83367 6.15253 6.82125 6.14863 6.81078 6.14077C6.79219 6.12699 6.78277 6.10359 6.78683 6.08038L6.80867 5.94941L6.71586 5.85667C6.69945 5.84035 6.69347 5.8157 6.70058 5.79339C6.70769 5.77105 6.72656 5.7548 6.7493 5.75132L6.87761 5.73226L6.93504 5.61308C6.94515 5.59203 6.96609 5.5787 6.98902 5.5787C7.01203 5.5787 7.033 5.59203 7.04308 5.61308L7.1005 5.73226L7.22886 5.75132C7.25156 5.7548 7.27042 5.77105 7.27742 5.79339C7.28453 5.8157 7.27863 5.84035 7.26214 5.85667L7.16933 5.94941L7.19125 6.08038C7.19515 6.10363 7.18585 6.12695 7.16734 6.14077C7.15687 6.14867 7.14441 6.15253 7.13187 6.15253Z" fill="white"/>
<path d="M7.13187 7.22369C7.1223 7.22369 7.11269 7.22139 7.10378 7.21662L6.98898 7.15482L6.87422 7.21662C6.86535 7.22143 6.85574 7.22369 6.84621 7.22369C6.83367 7.22369 6.82125 7.21975 6.81078 7.21193C6.79219 7.19811 6.78277 7.17471 6.78683 7.15162L6.80867 7.02061L6.71586 6.92795C6.69945 6.91146 6.69347 6.88686 6.70058 6.86455C6.70769 6.84221 6.72656 6.82588 6.7493 6.82248L6.87761 6.80342L6.93504 6.68424C6.94515 6.66322 6.96609 6.6499 6.98902 6.6499C7.01203 6.6499 7.033 6.66322 7.04308 6.68424L7.1005 6.80342L7.22886 6.82248C7.25156 6.82592 7.27042 6.84225 7.27742 6.86455C7.28453 6.88686 7.27863 6.91146 7.26214 6.92795L7.16933 7.02061L7.19125 7.15162C7.19515 7.17471 7.18585 7.19811 7.16734 7.21193C7.15687 7.21975 7.14441 7.22369 7.13187 7.22369Z" fill="white"/>
<path d="M7.13187 8.29478C7.1223 8.29478 7.11269 8.29248 7.10378 8.28771L6.98898 8.22584L6.87422 8.28771C6.86535 8.29252 6.85574 8.29478 6.84621 8.29478C6.83367 8.29478 6.82125 8.29088 6.81078 8.28299C6.79219 8.2692 6.78277 8.24576 6.78683 8.22264L6.80867 8.0917L6.71586 7.99896C6.69945 7.98256 6.69347 7.95795 6.70058 7.9356C6.70769 7.91326 6.72656 7.89693 6.7493 7.89353L6.87761 7.87447L6.93504 7.75529C6.94515 7.73428 6.96609 7.72092 6.98902 7.72092C7.01203 7.72092 7.033 7.73432 7.04308 7.75529L7.1005 7.87447L7.22886 7.89353C7.25156 7.89697 7.27042 7.9133 7.27742 7.9356C7.28453 7.95795 7.27863 7.98256 7.26214 7.99896L7.16933 8.0917L7.19125 8.22264C7.19515 8.24576 7.18585 8.2692 7.16734 8.28299C7.15687 8.29088 7.14441 8.29478 7.13187 8.29478Z" fill="white"/>
<path d="M6.45341 4.54596C6.44392 4.54596 6.43423 4.54373 6.42541 4.53885L6.3106 4.47705L6.19584 4.53885C6.18701 4.5437 6.17736 4.54596 6.16779 4.54596C6.15529 4.54596 6.14283 4.54202 6.13232 4.53416C6.11381 4.52041 6.10443 4.49694 6.10838 4.47381L6.13025 4.3428L6.03748 4.2501C6.021 4.23366 6.0151 4.20909 6.02217 4.18674C6.02928 4.16436 6.04803 4.14807 6.07088 4.14467L6.1992 4.12561L6.25662 4.00639C6.26677 3.98534 6.28771 3.97202 6.31064 3.97202C6.33361 3.97202 6.35455 3.98537 6.36466 4.00639L6.42209 4.12561L6.55044 4.14467C6.57314 4.14811 6.59201 4.16436 6.59904 4.18674C6.60615 4.20909 6.60021 4.23366 6.58376 4.2501L6.49091 4.3428L6.51287 4.47381C6.51677 4.49694 6.50744 4.52037 6.48892 4.53416C6.47837 4.54198 6.46595 4.54596 6.45341 4.54596Z" fill="white"/>
<path d="M6.45341 5.61703C6.44392 5.61703 6.43423 5.61468 6.42541 5.60996L6.3106 5.54812L6.19584 5.60996C6.18701 5.61472 6.17736 5.61703 6.16779 5.61703C6.15529 5.61703 6.14283 5.61304 6.13232 5.60527C6.11381 5.5914 6.10443 5.56804 6.10838 5.54492L6.13025 5.4139L6.03748 5.32117C6.021 5.30476 6.0151 5.28019 6.02217 5.25781C6.02928 5.23547 6.04803 5.21921 6.07088 5.21582L6.1992 5.19671L6.25662 5.07754C6.26677 5.05648 6.28771 5.04312 6.31064 5.04312C6.33361 5.04312 6.35455 5.05652 6.36466 5.07754L6.42209 5.19671L6.55044 5.21582C6.57314 5.21921 6.59201 5.2355 6.59904 5.25781C6.60615 5.28019 6.60021 5.30476 6.58376 5.32117L6.49091 5.4139L6.51287 5.54492C6.51677 5.56804 6.50744 5.5914 6.48892 5.60527C6.47837 5.61304 6.46595 5.61703 6.45341 5.61703Z" fill="white"/>
<path d="M6.45341 6.68816C6.44392 6.68816 6.43423 6.68585 6.42541 6.68112L6.3106 6.61925L6.19584 6.68112C6.18701 6.68585 6.17736 6.68816 6.16779 6.68816C6.15529 6.68816 6.14283 6.68417 6.13232 6.6764C6.11381 6.66261 6.10443 6.63917 6.10838 6.61601L6.13025 6.48503L6.03748 6.3923C6.021 6.37589 6.0151 6.35132 6.02217 6.32898C6.02928 6.30659 6.04803 6.2903 6.07088 6.28695L6.1992 6.26788L6.25662 6.14862C6.26677 6.12761 6.28771 6.11429 6.31064 6.11429C6.33361 6.11429 6.35455 6.12761 6.36466 6.14862L6.42209 6.26788L6.55044 6.28695C6.57314 6.29038 6.59201 6.30663 6.59904 6.32898C6.60615 6.35132 6.60021 6.37589 6.58376 6.3923L6.49091 6.48503L6.51287 6.61601C6.51677 6.63917 6.50744 6.66261 6.48892 6.6764C6.47837 6.68417 6.46595 6.68816 6.45341 6.68816Z" fill="white"/>
<path d="M6.45341 7.75924C6.44392 7.75924 6.43423 7.75701 6.42541 7.75217L6.3106 7.69033L6.19584 7.75217C6.18701 7.75697 6.17736 7.75924 6.16779 7.75924C6.15529 7.75924 6.14283 7.75533 6.13232 7.74748C6.11381 7.73369 6.10443 7.71022 6.10838 7.68713L6.13025 7.55611L6.03748 7.46342C6.021 7.44705 6.0151 7.42244 6.02217 7.40002C6.02928 7.37768 6.04803 7.36143 6.07088 7.35803L6.1992 7.33901L6.25662 7.21979C6.26677 7.19873 6.28771 7.18533 6.31064 7.18533C6.33361 7.18533 6.35455 7.19873 6.36466 7.21979L6.42209 7.33901L6.55044 7.35803C6.57314 7.36147 6.59201 7.37772 6.59904 7.40002C6.60615 7.4224 6.60021 7.44701 6.58376 7.46342L6.49091 7.55611L6.51287 7.68713C6.51677 7.71022 6.50744 7.73365 6.48892 7.74748C6.47837 7.75533 6.46595 7.75924 6.45341 7.75924Z" fill="white"/>
<path d="M6.45341 8.8303C6.44392 8.8303 6.43423 8.82799 6.42541 8.82323L6.3106 8.76143L6.19584 8.82323C6.18701 8.82799 6.17736 8.8303 6.16779 8.8303C6.15529 8.8303 6.14283 8.82639 6.13232 8.81854C6.11381 8.80479 6.10443 8.78131 6.10838 8.75819L6.13025 8.62721L6.03748 8.53456C6.021 8.51811 6.0151 8.4935 6.02217 8.47116C6.02928 8.44877 6.04803 8.43249 6.07088 8.42909L6.1992 8.41002L6.25662 8.29088C6.26677 8.26983 6.28771 8.25647 6.31064 8.25647C6.33361 8.25647 6.35455 8.26983 6.36466 8.29088L6.42209 8.41002L6.55044 8.42909C6.57314 8.43249 6.59201 8.44877 6.59904 8.47116C6.60615 8.4935 6.60021 8.51811 6.58376 8.53456L6.49091 8.62721L6.51287 8.75819C6.51677 8.78131 6.50744 8.80479 6.48892 8.81854C6.47837 8.82643 6.46595 8.8303 6.45341 8.8303Z" fill="white"/>
<path d="M7.77051 4.54596C7.7609 4.54596 7.75125 4.54373 7.74243 4.53885L7.62766 4.47705L7.51286 4.53885C7.50399 4.5437 7.49434 4.54596 7.48485 4.54596C7.47231 4.54596 7.45989 4.54202 7.4493 4.53416C7.43079 4.52041 7.42141 4.49694 7.42536 4.47381L7.44727 4.3428L7.35438 4.2501C7.33794 4.23366 7.33204 4.20909 7.33915 4.18674C7.34622 4.16436 7.36512 4.14807 7.38782 4.14467L7.51614 4.12561L7.57352 4.00639C7.58368 3.98534 7.60465 3.97202 7.62758 3.97202C7.65051 3.97202 7.67145 3.98537 7.68157 4.00639L7.73907 4.12561L7.86735 4.14467C7.89008 4.14811 7.90891 4.16436 7.91602 4.18674C7.92317 4.20909 7.91727 4.23366 7.90078 4.2501L7.80785 4.3428L7.82985 4.47381C7.83371 4.49694 7.82434 4.52037 7.80582 4.53416C7.79539 4.54198 7.78293 4.54596 7.77051 4.54596Z" fill="white"/>
<path d="M7.77051 5.61703C7.7609 5.61703 7.75125 5.61468 7.74243 5.60996L7.62766 5.54812L7.51286 5.60996C7.50399 5.61472 7.49434 5.61703 7.48485 5.61703C7.47231 5.61703 7.45989 5.61304 7.4493 5.60527C7.43079 5.5914 7.42141 5.56804 7.42536 5.54492L7.44727 5.4139L7.35438 5.32117C7.33794 5.30476 7.33204 5.28019 7.33915 5.25781C7.34622 5.23547 7.36512 5.21921 7.38782 5.21582L7.51614 5.19671L7.57352 5.07754C7.58368 5.05648 7.60465 5.04312 7.62758 5.04312C7.65051 5.04312 7.67145 5.05652 7.68157 5.07754L7.73907 5.19671L7.86735 5.21582C7.89008 5.21921 7.90891 5.2355 7.91602 5.25781C7.92317 5.28019 7.91727 5.30476 7.90078 5.32117L7.80785 5.4139L7.82985 5.54492C7.83371 5.56804 7.82434 5.5914 7.80582 5.60527C7.79539 5.61304 7.78293 5.61703 7.77051 5.61703Z" fill="white"/>
<path d="M7.77051 6.68816C7.7609 6.68816 7.75125 6.68585 7.74243 6.68112L7.62766 6.61925L7.51286 6.68112C7.50399 6.68585 7.49434 6.68816 7.48485 6.68816C7.47231 6.68816 7.45989 6.68417 7.4493 6.6764C7.43079 6.66261 7.42141 6.63917 7.42536 6.61601L7.44727 6.48503L7.35438 6.3923C7.33794 6.37589 7.33204 6.35132 7.33915 6.32898C7.34622 6.30659 7.36512 6.2903 7.38782 6.28695L7.51614 6.26788L7.57352 6.14862C7.58368 6.12761 7.60465 6.11429 7.62758 6.11429C7.65051 6.11429 7.67145 6.12761 7.68157 6.14862L7.73907 6.26788L7.86735 6.28695C7.89008 6.29038 7.90891 6.30663 7.91602 6.32898C7.92317 6.35132 7.91727 6.37589 7.90078 6.3923L7.80785 6.48503L7.82985 6.61601C7.83371 6.63917 7.82434 6.66261 7.80582 6.6764C7.79539 6.68417 7.78293 6.68816 7.77051 6.68816Z" fill="white"/>
<path d="M7.77051 7.75924C7.7609 7.75924 7.75125 7.75701 7.74243 7.75217L7.62766 7.69033L7.51286 7.75217C7.50399 7.75697 7.49434 7.75924 7.48485 7.75924C7.47231 7.75924 7.45989 7.75533 7.4493 7.74748C7.43079 7.73369 7.42141 7.71022 7.42536 7.68713L7.44727 7.55611L7.35438 7.46342C7.33794 7.44705 7.33204 7.42244 7.33915 7.40002C7.34622 7.37768 7.36512 7.36143 7.38782 7.35803L7.51614 7.33901L7.57352 7.21979C7.58368 7.19873 7.60465 7.18533 7.62758 7.18533C7.65051 7.18533 7.67145 7.19873 7.68157 7.21979L7.73907 7.33901L7.86735 7.35803C7.89008 7.36147 7.90891 7.37772 7.91602 7.40002C7.92317 7.4224 7.91727 7.44701 7.90078 7.46342L7.80785 7.55611L7.82985 7.68713C7.83371 7.71022 7.82434 7.73365 7.80582 7.74748C7.79539 7.75533 7.78293 7.75924 7.77051 7.75924Z" fill="white"/>
<path d="M7.77051 8.8303C7.7609 8.8303 7.75125 8.82799 7.74243 8.82323L7.62766 8.76143L7.51286 8.82323C7.50399 8.82799 7.49434 8.8303 7.48485 8.8303C7.47231 8.8303 7.45989 8.82639 7.4493 8.81854C7.43079 8.80479 7.42141 8.78131 7.42536 8.75819L7.44727 8.62721L7.35438 8.53456C7.33794 8.51811 7.33204 8.4935 7.33915 8.47116C7.34622 8.44877 7.36512 8.43249 7.38782 8.42909L7.51614 8.41002L7.57352 8.29088C7.58368 8.26983 7.60465 8.25647 7.62758 8.25647C7.65051 8.25647 7.67145 8.26983 7.68157 8.29088L7.73907 8.41002L7.86735 8.42909C7.89008 8.43249 7.90891 8.44877 7.91602 8.47116C7.92317 8.4935 7.91727 8.51811 7.90078 8.53456L7.80785 8.62721L7.82985 8.75819C7.83371 8.78131 7.82434 8.80479 7.80582 8.81854C7.79539 8.82643 7.78293 8.8303 7.77051 8.8303Z" fill="white"/>
<path opacity="0.1" d="M1.28422 12.9449H0V14.2147H1.28422V12.9449Z" fill="black"/>
<path opacity="0.1" d="M1.28422 16.1803V15.3315H0V16.1803C0 16.4119 0.189453 16.6014 0.421055 16.6014H1.70527C1.47367 16.6013 1.28422 16.4119 1.28422 16.1803Z" fill="black"/>
</svg>
