<svg width="20" height="20" viewBox="0 0 20 20" fill="none" xmlns="http://www.w3.org/2000/svg">
<g clip-path="url(#clip0)">
<path d="M20 3.33331H0V16.6668H20V3.33331Z" fill="#F0F0F0"/>
<path d="M11.25 3.33319H8.75V8.74983H0V11.2498H8.75V16.6665H11.25V11.2498H20V8.74983H11.25V3.33319Z" fill="#D80027"/>
<path d="M15.3823 12.3187L20.0001 14.8841V12.3187H15.3823Z" fill="#0052B4"/>
<path d="M12.174 12.3187L20 16.6665V15.437L14.387 12.3187H12.174Z" fill="#0052B4"/>
<path d="M17.9154 16.6665L12.174 13.4765V16.6665H17.9154Z" fill="#0052B4"/>
<path d="M12.174 12.3187L20 16.6665V15.437L14.387 12.3187H12.174Z" fill="#F0F0F0"/>
<path d="M12.174 12.3187L20 16.6665V15.437L14.387 12.3187H12.174Z" fill="#D80027"/>
<path d="M3.52895 12.3186L0 14.2792V12.3186H3.52895Z" fill="#0052B4"/>
<path d="M7.82608 12.8715V16.6665H0.995728L7.82608 12.8715Z" fill="#0052B4"/>
<path d="M5.61301 12.3187L0 15.437V16.6665L7.82609 12.3187H5.61301Z" fill="#D80027"/>
<path d="M4.61777 7.68101L0 5.11554V7.68101H4.61777Z" fill="#0052B4"/>
<path d="M7.82609 7.681L0 3.33319V4.56264L5.61301 7.681H7.82609Z" fill="#0052B4"/>
<path d="M2.08459 3.33319L7.82608 6.52319V3.33319H2.08459Z" fill="#0052B4"/>
<path d="M7.82609 7.681L0 3.33319V4.56264L5.61301 7.681H7.82609Z" fill="#F0F0F0"/>
<path d="M7.82609 7.681L0 3.33319V4.56264L5.61301 7.681H7.82609Z" fill="#D80027"/>
<path d="M16.4711 7.6811L20.0001 5.72055V7.6811H16.4711Z" fill="#0052B4"/>
<path d="M12.174 7.12821V3.33325H19.0043L12.174 7.12821Z" fill="#0052B4"/>
<path d="M14.387 7.681L20 4.56264V3.33319L12.174 7.681H14.387Z" fill="#D80027"/>
</g>
<defs>
<clipPath id="clip0">
<rect width="20" height="20" fill="white"/>
</clipPath>
</defs>
</svg>
